<svg
  xmlns="http://www.w3.org/2000/svg"
  fill="none"
  viewBox="0 0 26 26"
  width="26"
  height="26"
>
  <path
    fill="#A6A6A6"
    d="M10.67 13a2.33 2.33 0 1 1 4.66 0 2.33 2.33 0 0 1-4.66 0ZM9.4 13a3.6 3.6 0 1 0 7.18 0 3.6 3.6 0 0 0-7.18 0Zm6.49-3.74a.84.84 0 1 0 1.68 0 .84.84 0 0 0-1.68 0Zm-5.73 9.44a3.86 3.86 0 0 1-1.3-.24 2.18 2.18 0 0 1-.8-.53c-.25-.24-.4-.47-.53-.8-.1-.25-.2-.62-.24-1.3-.03-.74-.04-.96-.04-2.83s0-2.09.04-2.83c.03-.68.15-1.05.24-1.3.13-.33.28-.56.53-.8.24-.25.47-.4.8-.53.25-.1.62-.2 1.3-.24.74-.03.96-.04 2.83-.04s2.1 0 2.83.04c.68.03 1.05.15 1.3.24.33.13.56.28.8.53.25.24.4.47.53.8.1.25.2.62.24 1.3.03.74.04.96.04 2.83s0 2.09-.04 2.83a3.88 3.88 0 0 1-.24 1.3c-.13.33-.28.56-.53.8-.24.25-.47.4-.8.53-.25.1-.62.2-1.3.24-.74.03-.96.04-2.83.04s-2.09 0-2.83-.04Zm-.06-12.66c-.74.04-1.25.15-1.7.33-.46.18-.85.42-1.23.8-.4.4-.63.78-.81 1.24-.18.45-.3.96-.33 1.7-.03.75-.04.99-.04 2.89 0 1.9 0 2.14.04 2.89.04.74.15 1.25.33 1.7.18.46.42.85.8 1.23.4.4.78.63 1.25.81.44.18.95.3 1.7.33.74.03.98.04 2.88.04s2.14 0 2.89-.04a5.13 5.13 0 0 0 1.7-.33c.46-.18.85-.42 1.24-.8.38-.4.62-.78.8-1.24.18-.45.3-.96.33-1.7.03-.75.04-.99.04-2.89 0-1.9 0-2.14-.04-2.89a5.13 5.13 0 0 0-.33-1.7 3.44 3.44 0 0 0-.8-1.24 3.43 3.43 0 0 0-1.24-.8c-.45-.18-.96-.3-1.7-.33C15.14 6.01 14.9 6 13 6c-1.9 0-2.14 0-2.89.04Z"
  />
</svg>
