<svg xmlns="http://www.w3.org/2000/svg" viewBox="0 0 182 32" width="182" height="32"><path d="m7.48.88 6.42 13.19L20.41.88h7.52L17.3 20.54V30.7h-6.84V20.45L0 .88h7.48Z"></path><path d="M36.8 31.12c-2.52 0-4.66-.53-6.42-1.6a10.83 10.83 0 0 1-4-4.2A11.8 11.8 0 0 1 25 19.7c0-2.05.46-3.94 1.39-5.67a10.75 10.75 0 0 1 4.03-4.2c1.76-1.07 3.9-1.6 6.38-1.6 2.5 0 4.62.53 6.39 1.6a10.75 10.75 0 0 1 4.03 4.2 11.88 11.88 0 0 1 1.39 5.67c0 2.01-.47 3.89-1.39 5.62a10.75 10.75 0 0 1-4.03 4.2 12.14 12.14 0 0 1-6.39 1.6ZM31.9 19.7c0 1.7.46 3.09 1.39 4.15a4.55 4.55 0 0 0 3.52 1.6c1.38 0 2.52-.53 3.45-1.6a6 6 0 0 0 1.43-4.15 6 6 0 0 0-1.43-4.16 4.38 4.38 0 0 0-3.45-1.6c-1.4 0-2.57.53-3.52 1.6a6.11 6.11 0 0 0-1.39 4.16Z"></path><path d="M51.73 22.76V8.65h6.72v12.64c0 2.77 1.02 4.16 3.06 4.16.9 0 1.77-.24 2.6-.71a6.49 6.49 0 0 0 2.23-2.48V8.65h6.72v14.57c0 .68.1 1.15.3 1.43.22.28.6.44 1.13.46v5.59c-.64.11-1.19.2-1.64.25a9.9 9.9 0 0 1-1.21.09c-2.41 0-3.78-.94-4.12-2.82l-.13-1.34a9.31 9.31 0 0 1-3.78 3.23c-1.48.67-3.15 1.01-5 1.01-2.23 0-3.94-.71-5.12-2.14-1.17-1.43-1.76-3.5-1.76-6.22Z"></path><path d="M92.26 14.4c-1.63.03-3.1.3-4.41.8a5.38 5.38 0 0 0-2.86 2.27V30.7h-6.72V8.65h6.17v4.45a9.28 9.28 0 0 1 2.94-3.48 6.77 6.77 0 0 1 4.88-1.26v6.04Z"></path><path d="M116.92 6.93h-9.07V30.7h-6.89V6.93h-9.11V.88h25.07v6.05Z"></path><path d="M126.38 31.12c-2.52 0-4.66-.53-6.42-1.6a10.83 10.83 0 0 1-4-4.2 11.8 11.8 0 0 1-1.38-5.62c0-2.05.46-3.94 1.39-5.67a10.75 10.75 0 0 1 4.03-4.2c1.76-1.07 3.89-1.6 6.38-1.6 2.5 0 4.62.53 6.39 1.6a10.75 10.75 0 0 1 4.03 4.2 11.88 11.88 0 0 1 1.38 5.67c0 2.01-.46 3.89-1.38 5.62a10.75 10.75 0 0 1-4.03 4.2 12.14 12.14 0 0 1-6.39 1.6Zm-4.91-11.42c0 1.7.46 3.09 1.38 4.15a4.55 4.55 0 0 0 3.53 1.6c1.37 0 2.52-.53 3.45-1.6a6 6 0 0 0 1.42-4.15 6 6 0 0 0-1.42-4.16 4.38 4.38 0 0 0-3.45-1.6c-1.4 0-2.57.53-3.53 1.6a6.11 6.11 0 0 0-1.38 4.16Z"></path><path d="M141.3 22.76V8.65h6.73v12.64c0 2.77 1.02 4.16 3.06 4.16.9 0 1.77-.24 2.6-.71a6.49 6.49 0 0 0 2.23-2.48V8.65h6.72v14.57c0 .68.1 1.15.3 1.43.22.28.6.44 1.13.46v5.59c-.64.11-1.19.2-1.64.25a9.9 9.9 0 0 1-1.22.09c-2.4 0-3.78-.94-4.11-2.82l-.13-1.34a9.31 9.31 0 0 1-3.78 3.23c-1.48.67-3.15 1.01-5 1.01-2.23 0-3.94-.71-5.12-2.14-1.17-1.43-1.76-3.5-1.76-6.22Z"></path><path d="M181.84 14.4c-1.63.03-3.1.3-4.41.8a5.38 5.38 0 0 0-2.86 2.27V30.7h-6.72V8.65h6.17v4.45a9.28 9.28 0 0 1 2.94-3.48 6.77 6.77 0 0 1 4.88-1.26v6.04Z"></path></svg>
