<svg
  xmlns="http://www.w3.org/2000/svg"
  fill="none"
  viewBox="0 0 26 26"
  width="26"
  height="26"
>
  <path
    fill="#A6A6A6"
    fill-rule="evenodd"
    d="M22.54 7.8c.14-.47 0-.8-.66-.8H19.7c-.56 0-.8.3-.95.63 0 0-1.1 2.75-2.69 4.52-.51.52-.73.68-1.01.68-.14 0-.35-.16-.35-.64V7.81c0-.57-.15-.81-.62-.81h-3.44c-.35 0-.56.27-.56.5 0 .54.78.67.87 2.15v3.26c0 .7-.12.83-.4.83-.74 0-2.55-2.75-3.62-5.9C6.7 7.25 6.5 7 5.94 7H3.75c-.62 0-.75.3-.75.63 0 .59.73 3.5 3.45 7.33C8.27 17.58 10.82 19 13.13 19c1.39 0 1.56-.32 1.56-.85v-2c0-.62.13-.75.58-.75.33 0 .88.16 2.17 1.42 1.49 1.5 1.74 2.18 2.57 2.18h2.19c.62 0 .93-.32.75-.93-.2-.62-.91-1.52-1.85-2.6-.51-.6-1.28-1.25-1.5-1.59-.33-.42-.23-.61 0-.97 0-.02 2.67-3.81 2.94-5.1Z"
    clip-rule="evenodd"
  />
</svg>
